<svg xmlns="http://www.w3.org/2000/svg" xmlns:xlink="http://www.w3.org/1999/xlink" x="0px" y="0px" viewBox="0 0 100 100" style="enable-background:new 0 0 100 100;" xml:space="preserve">
<style type="text/css">
	.st01c{fill:url(#SVGID_1_GRAD1C);}
	.st11c{fill:url(#SVGID_2_GRAD1C);}
	.st21c{fill:url(#SVGID_3_GRAD1C);}
	.st31c{fill:url(#SVGID_4_GRAD1C);}
	.st41c{fill:url(#SVGID_5_GRAD1C);}
	.st51c{fill:url(#SVGID_6_GRAD1C);}
	.st61c{fill:url(#SVGID_7_GRAD1C);}
	.st71c{fill:url(#SVGID_8_GRAD1C);}
	.st81c{fill:url(#SVGID_9_GRAD1C);}
	.st91c{fill:url(#SVGID_10_GRAD1C);}
	.st101c{fill:url(#SVGID_11_GRAD1C);}
	.st111c{fill:url(#SVGID_12_GRAD1C);}
</style>
    <linearGradient id="SVGID_1_GRAD1C" gradientUnits="userSpaceOnUse" x1="-5.7151" y1="93.494" x2="94.1748" y2="-6.2858">
	<stop offset="0" style="stop-color:#820898"></stop>
        <stop offset="1" style="stop-color:#FF5894"></stop>
</linearGradient>
    <path class="st01c" d="M65.4,33.9c-0.3,0-0.7-0.1-1-0.3c-0.8-0.5-1-1.6-0.5-2.4c1.7-2.6,2.6-5.6,2.6-8.7c0-3.1-0.9-6.1-2.6-8.7
	c-0.5-0.8-0.3-1.9,0.5-2.4c0.8-0.5,1.9-0.3,2.4,0.5c2.1,3.2,3.2,6.8,3.2,10.6c0,3.8-1.1,7.4-3.2,10.6C66.5,33.6,65.9,33.9,65.4,33.9
	"></path>
    <linearGradient id="SVGID_2_GRAD1C" gradientUnits="userSpaceOnUse" x1="-1.908" y1="97.3053" x2="97.9819" y2="-2.4745">
	<stop offset="0" style="stop-color:#820898"></stop>
        <stop offset="1" style="stop-color:#FF5894"></stop>
</linearGradient>
    <path class="st11c" d="M73,38.8c-0.3,0-0.7-0.1-1-0.3c-0.8-0.5-1-1.6-0.5-2.4c2.7-4.1,4.1-8.8,4.1-13.6c0-4.8-1.4-9.6-4.1-13.6
	C71,8.1,71.2,7,72,6.4c0.8-0.5,1.9-0.3,2.4,0.5c3.1,4.6,4.7,10,4.7,15.5c0,5.5-1.6,10.9-4.7,15.5C74.1,38.6,73.6,38.8,73,38.8"></path>
    <linearGradient id="SVGID_3_GRAD1C" gradientUnits="userSpaceOnUse" x1="1.8979" y1="101.1154" x2="101.7878" y2="1.3357">
	<stop offset="0" style="stop-color:#820898"></stop>
        <stop offset="1" style="stop-color:#FF5894"></stop>
</linearGradient>
    <path class="st21c" d="M80.6,43.8c-0.3,0-0.7-0.1-1-0.3c-0.8-0.5-1-1.6-0.5-2.4c3.6-5.5,5.6-12,5.6-18.6s-1.9-13-5.6-18.6
	c-0.5-0.8-0.3-1.9,0.5-2.4C80.5,1,81.6,1.2,82.1,2c4,6.1,6.1,13.2,6.1,20.5S86.1,36.9,82.1,43C81.7,43.5,81.2,43.8,80.6,43.8"></path>
    <linearGradient id="SVGID_4_GRAD1C" gradientUnits="userSpaceOnUse" x1="-13.1342" y1="86.0667" x2="86.7557" y2="-13.713">
	<stop offset="0" style="stop-color:#820898"></stop>
        <stop offset="1" style="stop-color:#FF5894"></stop>
</linearGradient>
    <path class="st31c" d="M50.5,32.1c-5.3,0-9.7-4.3-9.7-9.6c0-5.3,4.3-9.6,9.7-9.6s9.7,4.3,9.7,9.6C60.2,27.8,55.8,32.1,50.5,32.1
	 M50.5,16.4c-3.4,0-6.1,2.7-6.1,6.1c0,3.4,2.8,6.1,6.1,6.1c3.4,0,6.1-2.7,6.1-6.1C56.7,19.1,53.9,16.4,50.5,16.4"></path>
    <linearGradient id="SVGID_5_GRAD1C" gradientUnits="userSpaceOnUse" x1="-20.5535" y1="78.6392" x2="79.3364" y2="-21.1405">
	<stop offset="0" style="stop-color:#820898"></stop>
        <stop offset="1" style="stop-color:#FF5894"></stop>
</linearGradient>
    <path class="st41c" d="M35.7,33.9c-0.6,0-1.1-0.3-1.5-0.8c-2.1-3.2-3.2-6.8-3.2-10.6c0-3.8,1.1-7.4,3.2-10.6c0.5-0.8,1.6-1,2.4-0.5
	c0.8,0.5,1,1.6,0.5,2.4c-1.7,2.6-2.6,5.6-2.6,8.7c0,3.1,0.9,6.1,2.6,8.7c0.5,0.8,0.3,1.9-0.5,2.4C36.3,33.8,36,33.9,35.7,33.9"></path>
    <linearGradient id="SVGID_6_GRAD1C" gradientUnits="userSpaceOnUse" x1="-24.3601" y1="74.8284" x2="75.5298" y2="-24.9513">
	<stop offset="0" style="stop-color:#820898"></stop>
        <stop offset="1" style="stop-color:#FF5894"></stop>
</linearGradient>
    <path class="st51c" d="M28,38.8c-0.6,0-1.1-0.3-1.5-0.8c-3-4.6-4.7-10-4.7-15.5c0-5.5,1.6-10.9,4.7-15.5c0.5-0.8,1.6-1,2.4-0.5
	c0.8,0.5,1,1.6,0.5,2.4c-2.7,4.1-4.1,8.8-4.1,13.6c0,4.8,1.4,9.6,4.1,13.6c0.5,0.8,0.3,1.9-0.5,2.4C28.7,38.7,28.4,38.8,28,38.8"></path>
    <linearGradient id="SVGID_7_GRAD1C" gradientUnits="userSpaceOnUse" x1="-28.1653" y1="71.019" x2="71.7246" y2="-28.7607">
	<stop offset="0" style="stop-color:#820898"></stop>
        <stop offset="1" style="stop-color:#FF5894"></stop>
</linearGradient>
    <path class="st61c" d="M20.4,43.8c-0.6,0-1.1-0.3-1.5-0.8c-4-6.1-6.1-13.2-6.1-20.5S14.9,8.1,18.9,2c0.5-0.8,1.6-1,2.4-0.5
	c0.8,0.5,1,1.6,0.5,2.4c-3.6,5.5-5.6,12-5.6,18.6s1.9,13,5.6,18.6c0.5,0.8,0.3,1.9-0.5,2.4C21.1,43.7,20.7,43.8,20.4,43.8"></path>
    <linearGradient id="SVGID_8_GRAD1C" gradientUnits="userSpaceOnUse" x1="3.3753" y1="102.5945" x2="103.2652" y2="2.8147">
	<stop offset="0" style="stop-color:#820898"></stop>
        <stop offset="1" style="stop-color:#FF5894"></stop>
</linearGradient>
    <path class="st71c" d="M33.9,99c-0.1,0-0.3,0-0.4-0.1c-0.9-0.2-1.5-1.2-1.3-2.1l16.6-66.9c0.2-0.9,1.2-1.5,2.1-1.3
	c0.9,0.2,1.5,1.2,1.3,2.1L35.6,97.7C35.4,98.5,34.7,99,33.9,99"></path>
    <linearGradient id="SVGID_9_GRAD1C" gradientUnits="userSpaceOnUse" x1="24.2392" y1="123.4814" x2="124.1291" y2="23.7016">
	<stop offset="0" style="stop-color:#820898"></stop>
        <stop offset="1" style="stop-color:#FF5894"></stop>
</linearGradient>
    <path class="st81c" d="M75.2,99H25.8c-1,0-1.8-0.8-1.8-1.8s0.8-1.8,1.8-1.8h49.3c1,0,1.8,0.8,1.8,1.8S76.1,99,75.2,99"></path>
    <linearGradient id="SVGID_10_GRAD1C" gradientUnits="userSpaceOnUse" x1="11.6635" y1="110.8917" x2="111.5533" y2="11.112">
	<stop offset="0" style="stop-color:#820898"></stop>
        <stop offset="1" style="stop-color:#FF5894"></stop>
</linearGradient>
    <path class="st91c" d="M67.1,99c-0.8,0-1.5-0.5-1.7-1.3L48.8,30.8c-0.2-0.9,0.3-1.9,1.3-2.1c1-0.2,1.9,0.3,2.1,1.3l16.6,66.9
	c0.2,0.9-0.3,1.9-1.3,2.1C67.4,99,67.2,99,67.1,99"></path>
    <linearGradient id="SVGID_11_GRAD1C" gradientUnits="userSpaceOnUse" x1="15.2658" y1="114.4981" x2="115.1557" y2="14.7183">
	<stop offset="0" style="stop-color:#820898"></stop>
        <stop offset="1" style="stop-color:#FF5894"></stop>
</linearGradient>
    <path class="st101c" d="M65.2,91.3c-0.5,0-1-0.2-1.4-0.6L41.2,63.4c-0.6-0.7-0.5-1.9,0.2-2.5c0.8-0.6,1.9-0.5,2.5,0.2l22.6,27.3
	c0.6,0.7,0.5,1.9-0.2,2.5C66,91.2,65.6,91.3,65.2,91.3"></path>
    <linearGradient id="SVGID_12_GRAD1C" gradientUnits="userSpaceOnUse" x1="11.8798" y1="111.1083" x2="111.7696" y2="11.3285">
	<stop offset="0" style="stop-color:#820898"></stop>
        <stop offset="1" style="stop-color:#FF5894"></stop>
</linearGradient>
    <path class="st111c" d="M35.8,91.3c-0.4,0-0.8-0.1-1.1-0.4c-0.7-0.6-0.9-1.7-0.2-2.5l22.6-27.3c0.6-0.7,1.7-0.9,2.5-0.2
	c0.7,0.6,0.9,1.7,0.2,2.5L37.2,90.7C36.8,91.1,36.3,91.3,35.8,91.3"></path>
</svg>