<?xml version="1.0" encoding="UTF-8" standalone="no"?>
<svg
   xmlns:dc="http://purl.org/dc/elements/1.1/"
   xmlns:cc="http://creativecommons.org/ns#"
   xmlns:rdf="http://www.w3.org/1999/02/22-rdf-syntax-ns#"
   xmlns:svg="http://www.w3.org/2000/svg"
   xmlns="http://www.w3.org/2000/svg"
   xmlns:sodipodi="http://sodipodi.sourceforge.net/DTD/sodipodi-0.dtd"
   xmlns:inkscape="http://www.inkscape.org/namespaces/inkscape"
   width="101mm"
   height="58mm"
   viewBox="0 0 101 58"
   version="1.1"
   id="svg8"
   inkscape:version="1.0.1 (3bc2e813f5, 2020-09-07)"
   sodipodi:docname="dibujo.svg">
  <defs
     id="defs2" />
  <sodipodi:namedview
     id="base"
     pagecolor="#ffffff"
     bordercolor="#666666"
     borderopacity="1.0"
     inkscape:pageopacity="0.0"
     inkscape:pageshadow="2"
     inkscape:zoom="1.4142136"
     inkscape:cx="352.23442"
     inkscape:cy="128.19512"
     inkscape:document-units="mm"
     inkscape:current-layer="layer1"
     inkscape:document-rotation="0"
     showgrid="false"
     showguides="false"
     inkscape:guide-bbox="true"
     inkscape:window-width="1600"
     inkscape:window-height="837"
     inkscape:window-x="-8"
     inkscape:window-y="-8"
     inkscape:window-maximized="1">
    <sodipodi:guide
       position="103.16604,161.22708"
       orientation="1,0"
       id="guide24" />
    <sodipodi:guide
       position="115.59407,161.22708"
       orientation="1,0"
       id="guide26" />
    <sodipodi:guide
       position="110.64958,141.71641"
       orientation="1,0"
       id="guide28" />
    <sodipodi:guide
       position="107.70962,141.58277"
       orientation="1,0"
       id="guide30" />
    <sodipodi:guide
       position="97.018836,145.59182"
       orientation="1,0"
       id="guide32" />
    <sodipodi:guide
       position="124.5476,158.55439"
       orientation="1,0"
       id="guide34" />
    <sodipodi:guide
       position="104.17969,153.08557"
       orientation="1,0"
       id="guide36" />
    <sodipodi:guide
       position="105.5026,157.38505"
       orientation="1,0"
       id="guide38" />
    <sodipodi:guide
       position="106.49479,160.45611"
       orientation="1,0"
       id="guide40" />
    <sodipodi:guide
       position="113.4401,158.75521"
       orientation="1,0"
       id="guide42" />
    <sodipodi:guide
       position="110.01469,150.65235"
       orientation="1,0"
       id="guide44" />
    <sodipodi:guide
       position="111.71559,156.81808"
       orientation="1,0"
       id="guide46" />
    <sodipodi:guide
       position="119.67671,156.58185"
       orientation="1,0"
       id="guide48" />
    <sodipodi:guide
       position="122.74777,156.44011"
       orientation="1,0"
       id="guide50" />
    <sodipodi:guide
       position="128.5119,161.07032"
       orientation="1,0"
       id="guide52" />
    <sodipodi:guide
       position="130.26004,166.173"
       orientation="1,0"
       id="guide54" />
    <sodipodi:guide
       position="135.59896,167.88333"
       orientation="1,0"
       id="guide56" />
    <sodipodi:guide
       position="133.13503,167.88333"
       orientation="1,0"
       id="guide58" />
    <sodipodi:guide
       position="141.3221,167.18385"
       orientation="1,0"
       id="guide60" />
    <sodipodi:guide
       position="127.66146,145.62054"
       orientation="1,0"
       id="guide62" />
    <sodipodi:guide
       position="119.10974,166.12575"
       orientation="1,0"
       id="guide64" />
    <sodipodi:guide
       position="163.24656,185.49516"
       orientation="1,0"
       id="guide66" />
    <sodipodi:guide
       position="131.44122,145.5851"
       orientation="1,0"
       id="guide68" />
    <sodipodi:guide
       position="143.15624,151.77242"
       orientation="1,0"
       id="guide70" />
    <sodipodi:guide
       position="148.26777,163.93319"
       orientation="1,0"
       id="guide72" />
    <sodipodi:guide
       position="150.40592,151.73902"
       orientation="1,0"
       id="guide74" />
    <sodipodi:guide
       position="142.28093,169.07812"
       orientation="1,0"
       id="guide76" />
    <sodipodi:guide
       position="152.10977,145.55841"
       orientation="1,0"
       id="guide78" />
    <sodipodi:guide
       position="160.74425,167.52295"
       orientation="1,0"
       id="guide80" />
    <sodipodi:guide
       position="158.0231,150.30244"
       orientation="1,0"
       id="guide82" />
    <sodipodi:guide
       position="165.33961,145.525"
       orientation="1,0"
       id="guide84" />
    <sodipodi:guide
       position="164.5378,152.00629"
       orientation="1,0"
       id="guide86" />
    <sodipodi:guide
       position="173.19065,145.55841"
       orientation="1,0"
       id="guide88" />
    <sodipodi:guide
       position="169.08138,155.07988"
       orientation="1,0"
       id="guide92" />
    <sodipodi:guide
       position="111.71559,166.0785"
       orientation="0,-1"
       id="guide96" />
    <sodipodi:guide
       position="113.4401,145.52605"
       orientation="0,-1"
       id="guide98" />
    <sodipodi:guide
       position="179.06622,166.0785"
       orientation="1,0"
       id="guide100" />
    <sodipodi:guide
       position="171.45945,166.0785"
       orientation="1,0"
       id="guide102" />
    <sodipodi:guide
       position="166.78199,159.18044"
       orientation="1,0"
       id="guide104" />
    <sodipodi:guide
       position="166.01423,166.0785"
       orientation="1,0"
       id="guide106" />
    <sodipodi:guide
       position="159.97842,166.0785"
       orientation="1,0"
       id="guide108" />
    <sodipodi:guide
       position="163.24656,167.32417"
       orientation="1,0"
       id="guide110" />
    <sodipodi:guide
       position="145.36121,170.09709"
       orientation="1,0"
       id="guide112" />
    <sodipodi:guide
       position="152.46056,170.36436"
       orientation="1,0"
       id="guide114" />
    <sodipodi:guide
       position="110.01469,150.65235"
       orientation="0,-1"
       id="guide116" />
    <sodipodi:guide
       position="103.16604,150.23894"
       orientation="0,-1"
       id="guide118" />
    <sodipodi:guide
       position="110.01469,153.46355"
       orientation="0,-1"
       id="guide120" />
    <sodipodi:guide
       position="110.38086,157.27874"
       orientation="0,-1"
       id="guide122" />
    <sodipodi:guide
       position="113.4401,160.75936"
       orientation="0,-1"
       id="guide124" />
    <sodipodi:guide
       position="86.060786,170.52806"
       orientation="1,0"
       id="guide134" />
    <sodipodi:guide
       position="88.118761,153.46355"
       orientation="1,0"
       id="guide136" />
    <sodipodi:guide
       position="81.383569,172.58604"
       orientation="1,0"
       id="guide138" />
    <sodipodi:guide
       position="80.027176,145.52605"
       orientation="1,0"
       id="guide140" />
    <sodipodi:guide
       position="96.176039,175.47357"
       orientation="1,0"
       id="guide144" />
    <sodipodi:guide
       position="99.531169,167.39433"
       orientation="1,0"
       id="guide146" />
    <sodipodi:guide
       position="138.21175,153.46355"
       orientation="1,0"
       id="guide150" />
    <sodipodi:guide
       position="156.26581,151.72565"
       orientation="1,0"
       id="guide152" />
    <sodipodi:guide
       position="154.97373,168.00237"
       orientation="1,0"
       id="guide154" />
    <sodipodi:guide
       position="155.34206,166.6869"
       orientation="1,0"
       id="guide156" />
    <sodipodi:guide
       position="150.40592,185.49516"
       orientation="0,-1"
       id="guide158" />
    <sodipodi:guide
       position="168.06003,166.92422"
       orientation="0,-1"
       id="guide209" />
  </sodipodi:namedview>
  <metadata
     id="metadata5">
    <rdf:RDF>
      <cc:Work
         rdf:about="">
        <dc:format>image/svg+xml</dc:format>
        <dc:type
           rdf:resource="http://purl.org/dc/dcmitype/StillImage" />
        <dc:title></dc:title>
      </cc:Work>
    </rdf:RDF>
  </metadata>
  <g
     inkscape:label="Capa 1"
     inkscape:groupmode="layer"
     id="layer1">
    <path
       style="fill:#ffffff;stroke:#ffffff;stroke-width:0.264583px;stroke-linecap:butt;stroke-linejoin:miter;stroke-opacity:1"
       d="m 24.027533,36.067546 h 12.42803 l -2.15397,5.31914 h -6.94531 l -0.99219,3.37431 6.21299,0.10631 -1.06601,3.81519 h -6.46989 l -1.01365,3.22461 6.84865,-0.41341 -2.30507,5.1263 H 17.880327 Z"
       id="path126" />
    <path
       style="fill:#ffffff;stroke:#ffffff;stroke-width:0.264583px;stroke-linecap:butt;stroke-linejoin:miter;stroke-opacity:1"
       d="m 40.538203,46.819046 0.23543,9.80095 h 2.83563 l 5.76413,-9.8946 -0.85044,9.8946 h 1.88397 c 0,0 2.78154,-1.7504 3.2187,-2.47537 0,-9.6e-4 0,-9.6e-4 0,-9.6e-4 l 2.98365,-18.07612 h -5.48774 l -5.38498,9.04308 -0.32746,-9.04308 h -5.43786 l -8.46016,20.55245 h 4.94449 c 0,0 3.05618,-8.39248 4.08264,-9.80375 l 0.004,0.071 c 0.009,0.16778 -0.004,-0.0682 -0.004,-0.0682"
       id="path130"
       sodipodi:nodetypes="ccccccccccccccccsc" />
    <path
       style="fill:#ffffff;stroke:#ffffff;stroke-width:0.264583px;stroke-linecap:butt;stroke-linejoin:miter;stroke-opacity:1"
       d="m 80.839913,36.067546 h 6.03581 l 0.76776,6.89806 4.67746,-6.89806 h 7.606766 c 0,0 -3.296416,2.36581 -5.588246,5.31914 -2.29184,2.95333 -4.39659,5.67948 -4.39659,5.67948 l 1.0056,4.84094 c 0,0 0.73499,3.62147 3.10367,4.68053 v 0 l -7.85104,0.0334 -0.80181,-6.48129 -3.30245,4.94616 c 0,0 -3.21225,-1.4372 -3.21225,-3.24231 v 0 l 3.8253,-5.41221 z"
       id="path132"
       sodipodi:nodetypes="cccccsccccccccccc" />
    <path
       style="fill:#ffffff;stroke:#ffffff;stroke-width:0.264583px;stroke-linecap:butt;stroke-linejoin:miter;stroke-opacity:1"
       d="m 17.037531,26.672476 -10.1152537,20.73112 2.591165,-20.83034 -7.268382,0.0496 -1.35639098,29.99713 H 8.7114273 L 20.392666,34.751706 c 0,0 3.506297,-6.73979 8.178447,-7.93041 v 0 z"
       id="path148"
       sodipodi:nodetypes="cccccccccc" />
    <path
       id="path162"
       style="fill:#ffffff;stroke:#ffffff;stroke-width:0.264583px;stroke-linecap:butt;stroke-linejoin:miter;stroke-opacity:1"
       d="m 73.238237,1.2316511 v 5.292e-4 c -0.34984,-0.00439 -0.701863,5.291e-4 -1.056783,0.012912 C 61.822964,1.6175935 51.168783,12.52225 51.168783,23.274239 c 0,4.52528 0.928246,8.700786 2.76779,11.947591 h 3.536217 c -2.291005,-3.115077 -3.705717,-7.0379 -3.705717,-10.797272 0,-8.383932 7.688945,-17.9755962 19.203996,-18.8944544 C 80.354393,5.2554 87.571086,13.71351 87.282857,23.45614 c -0.114239,3.861602 -2.07114,8.284888 -5.554183,11.76569 h 3.394109 c 2.61856,-2.669077 4.275995,-6.327687 5.108215,-11.362097 2.0897,-12.64132 -6.147562,-22.5135676 -16.992761,-22.6280766 z m -1.047483,8.4465132 c -0.233312,-0.00265 -0.468159,5.292e-4 -0.704866,0.00931 -6.90844,0.25595 -13.920597,7.2986117 -13.920597,14.6864417 0,4.467633 1.620076,8.506082 4.419886,10.847917 h 0.945161 c 0.350527,-0.593043 0.552,-1.148927 0.663527,-1.62574 -2.031683,-1.85564 -3.198254,-4.880348 -3.198254,-8.20932 0,-5.760688 5.533911,-11.252433 10.985891,-11.452013 0.186804,-0.0068 0.371189,-0.0096 0.553456,-0.0083 5.650214,0.04157 9.097121,3.994478 8.904882,10.688754 -0.09837,3.425803 -1.913874,6.857502 -5.44463,8.93899 0.166976,0.516432 0.402826,1.091157 0.659392,1.667597 h 1.204579 c 3.886504,-1.86109 5.904717,-4.934725 6.46317,-9.631971 C 84.950589,15.259071 79.423796,9.7568647 72.190754,9.6781882 Z m -0.285252,7.1380667 c -0.125275,-0.0034 -0.251209,-0.0033 -0.377238,5.29e-4 -3.8496,0.115203 -7.988766,3.540708 -8.642884,7.149952 -0.996749,5.499799 3.337263,8.082193 3.337263,8.082193 0,0 -1.824664,7.604702 -7.149433,17.559652 v 0.01704 c 0,0 -2.561415,4.213746 -6.770645,6.994406 l 8.788093,0.04702 c 0,0 1.368986,-2.810623 2.220537,-3.801835 0.354118,-0.412189 4.417303,-2.840542 7.956102,-0.147793 v -0.0052 l 1.703772,3.907764 h 8.586041 c -1.247466,-0.1637 -5.765956,-2.346505 -8.235156,-24.838276 0,0 7.550472,-5.135679 3.474722,-11.97188 -1.232765,-2.067697 -3.012043,-2.942108 -4.891174,-2.993615 z m 9.651608,39.803771 c 0.20914,0.02745 0.329179,0 0.329179,0 H 81.605685 Z M 68.08558,20.006217 c 0.385934,-0.0063 0.719262,0.177202 1.04748,0.435115 0.745482,0.585791 0.985525,3.139554 0.492995,3.899504 -1.368091,2.110859 -3.403412,1.71669 -3.403412,1.71669 -1.744599,-0.0696 -1.315072,-3.079702 -0.724503,-3.899503 1.154777,-1.602999 1.944216,-2.141318 2.58744,-2.151806 z m 1.043863,18.206641 2.137854,12.194087 c -3.84869,-2.281819 -7.249686,-0.03307 -7.249686,-0.03307 z"
       sodipodi:nodetypes="cccsccscsccscssscccsssscccssssscccccscccccssccccssscsscccc" />
  </g>
</svg>
